<?xml version="1.0" standalone="no"?>
<!DOCTYPE svg PUBLIC "-//W3C//DTD SVG 20010904//EN"
 "http://www.w3.org/TR/2001/REC-SVG-20010904/DTD/svg10.dtd">
<svg version="1.0" xmlns="http://www.w3.org/2000/svg"
 width="500.000000pt" height="500.000000pt" viewBox="0 0 500.000000 500.000000"
 preserveAspectRatio="xMidYMid meet">
<metadata>
Created by potrace 1.11, written by Peter Selinger 2001-2013
</metadata>
<g transform="translate(0.000000,500.000000) scale(0.100000,-0.100000)"
fill="#000000" stroke="none">
<path d="M0 2500 l0 -2500 2500 0 2500 0 0 2500 0 2500 -2500 0 -2500 0 0
-2500z m2627 243 c32 -23 35 -41 12 -56 -13 -8 -23 -5 -44 11 -39 31 -114 30
-149 0 -15 -13 -29 -37 -32 -55 -9 -46 32 -83 121 -113 45 -15 82 -35 103 -56
28 -28 32 -38 32 -87 0 -46 -5 -61 -27 -88 -52 -61 -149 -77 -229 -38 -60 29
-71 44 -49 69 18 20 19 20 39 1 47 -42 108 -53 161 -29 29 13 55 55 55 88 0
35 -50 75 -125 100 -45 15 -82 35 -102 56 -29 28 -33 39 -33 82 0 57 31 104
85 128 44 21 148 13 182 -13z m1462 1 c59 -30 73 -51 46 -70 -16 -12 -21 -12
-34 0 -77 67 -208 59 -278 -16 -71 -75 -71 -231 0 -306 35 -38 92 -62 146 -62
61 0 97 13 134 48 26 24 28 25 44 9 16 -16 15 -18 -8 -43 -82 -90 -259 -84
-354 11 -100 100 -100 280 0 380 77 78 205 98 304 49z m-3528 6 c42 -12 84
-54 93 -94 9 -38 -10 -91 -41 -116 -14 -11 -24 -21 -22 -23 2 -1 16 -8 30 -16
57 -28 77 -117 40 -177 -31 -50 -80 -68 -208 -72 l-113 -4 0 256 0 256 93 0
c50 0 108 -5 128 -10z m516 -13 c45 -24 65 -58 65 -112 1 -57 -22 -92 -80
-120 l-41 -20 70 -113 c38 -62 69 -115 69 -118 0 -3 -15 -4 -32 -2 -30 3 -39
12 -103 121 l-70 117 -42 0 -43 0 0 -120 0 -120 -25 0 -25 0 0 256 0 256 113
-4 c81 -3 121 -9 144 -21z m245 -164 c3 -174 5 -191 25 -224 27 -42 59 -59
114 -59 52 0 94 23 116 63 15 27 19 63 21 220 l4 187 24 0 24 0 0 -184 c0
-197 -6 -233 -49 -280 -35 -38 -80 -56 -140 -56 -87 0 -138 31 -172 105 -16
34 -19 67 -19 228 l0 187 24 0 24 0 4 -187z m698 -28 l145 -210 3 213 2 212
25 0 25 0 0 -255 0 -255 -33 0 c-32 0 -38 8 -178 213 l-144 212 -3 -213 -2
-213 -28 3 -27 3 -3 240 c-1 132 0 246 3 253 3 8 17 12 37 10 30 -3 44 -19
178 -213z m847 0 c39 -134 64 -204 68 -193 4 10 32 104 64 210 l56 193 32 3
c36 4 27 25 113 -271 24 -81 46 -144 50 -140 4 4 32 97 63 207 31 109 58 201
61 203 2 3 15 3 29 1 l25 -3 -75 -252 -76 -253 -31 0 -32 0 -58 203 c-32 111
-62 206 -66 210 -3 4 -26 -59 -50 -140 -85 -293 -77 -275 -113 -271 l-31 3
-73 245 c-40 135 -73 249 -73 253 0 5 12 7 28 5 26 -3 29 -9 89 -213z m713
-41 l0 -255 -27 3 -28 3 -3 240 c-1 132 0 245 2 252 3 7 17 13 31 13 l25 0 0
-256z m752 146 l3 -111 119 111 c105 97 123 110 154 110 l35 0 -24 -26 c-13
-14 -68 -64 -121 -112 -54 -47 -98 -90 -98 -96 0 -6 60 -70 132 -143 l133
-133 -40 0 c-38 0 -45 5 -167 132 l-127 133 -1 -133 0 -133 -27 3 -28 3 -3
240 c-1 132 0 245 2 252 3 7 17 13 30 13 25 0 25 0 28 -110z"/>
<path d="M390 2625 l0 -85 70 0 c103 0 140 23 140 86 0 60 -41 84 -146 84
l-64 0 0 -85z"/>
<path d="M390 2395 l0 -95 73 0 c121 0 182 48 157 125 -16 50 -52 65 -150 65
l-80 0 0 -95z"/>
<path d="M870 2626 l0 -86 75 0 c79 0 127 16 139 45 12 32 6 64 -18 92 -23 26
-31 28 -110 32 l-86 3 0 -86z"/>
</g>
</svg>
